<svg aria-hidden="true" style="width:0;height:0;position:absolute;overflow:hidden" xmlns="http://www.w3.org/2000/svg"><defs><symbol id="icon-right" viewBox="0 0 32 32"><path d="m11.086 22.086 2.829 2.829 8.914-8.914-8.914-8.914-2.828 2.828 6.086 6.086z"/></symbol><symbol id="icon-facebook" viewBox="0 0 24 24" fill="#fff"><path d="M24 12q0-2.479-.93-4.648t-2.592-3.831T16.647.929t-4.648-.93-4.648.93T3.52 3.521.928 7.352-.002 12q0 2.197.704 4.141t2.028 3.521T5.8 22.31t3.775 1.465v-8.169H7.209V12h2.366V9.014q0-1.183.592-2.141t1.521-1.521 2.113-.563h2.986v3.606h-2.366q-.507 0-.873.366t-.366.817v2.423h3.606v3.606h-3.606v8.338q2.31-.225 4.282-1.239t3.437-2.62 2.282-3.662.817-4.423z"/></symbol><symbol id="icon-twitter" viewBox="0 0 32 32" fill="#fff"><path d="M32 7.075a12.941 12.941 0 0 1-3.769 1.031 6.601 6.601 0 0 0 2.887-3.631 13.21 13.21 0 0 1-4.169 1.594A6.565 6.565 0 0 0 22.155 4a6.563 6.563 0 0 0-6.563 6.563c0 .512.056 1.012.169 1.494A18.635 18.635 0 0 1 2.23 5.195a6.56 6.56 0 0 0-.887 3.3 6.557 6.557 0 0 0 2.919 5.463 6.565 6.565 0 0 1-2.975-.819v.081a6.565 6.565 0 0 0 5.269 6.437 6.574 6.574 0 0 1-2.968.112 6.588 6.588 0 0 0 6.131 4.563 13.17 13.17 0 0 1-9.725 2.719 18.568 18.568 0 0 0 10.069 2.95c12.075 0 18.681-10.006 18.681-18.681 0-.287-.006-.569-.019-.85A13.216 13.216 0 0 0 32 7.076z"/></symbol><symbol id="icon-youtube" viewBox="0 0 32 32" fill="#fff"><path d="M31.681 9.6s-.313-2.206-1.275-3.175C29.187 5.15 27.825 5.144 27.2 5.069c-4.475-.325-11.194-.325-11.194-.325h-.012s-6.719 0-11.194.325c-.625.075-1.987.081-3.206 1.356C.631 7.394.325 9.6.325 9.6s-.319 2.588-.319 5.181v2.425c0 2.587.319 5.181.319 5.181s.313 2.206 1.269 3.175c1.219 1.275 2.819 1.231 3.531 1.369 2.563.244 10.881.319 10.881.319s6.725-.012 11.2-.331c.625-.075 1.988-.081 3.206-1.356.962-.969 1.275-3.175 1.275-3.175s.319-2.587.319-5.181v-2.425c-.006-2.588-.325-5.181-.325-5.181zM12.694 20.15v-8.994l8.644 4.513-8.644 4.481z"/></symbol><symbol id="icon-linkedin" viewBox="0 0 32 32" fill="#fff"><path d="M12 12h5.535v2.837h.079c.77-1.381 2.655-2.837 5.464-2.837C28.92 12 30 15.637 30 20.367V30h-5.769v-8.54c0-2.037-.042-4.657-3.001-4.657-3.005 0-3.463 2.218-3.463 4.509V30H12V12zM2 12h6v18H2V12zM8 7a3 3 0 1 1-6 0 3 3 0 0 1 6 0z"/></symbol><symbol id="icon-logo" viewBox="0 0 40 32" fill="none" xmlns="http://www.w3.org/2000/svg"><path d="M37.654.504c-3.805.212-11.37.986-16.039 3.8-.322.194-.505.54-.505.9v24.874c0 .79.878 1.289 1.617.922 4.804-2.38 11.752-3.03 15.188-3.207 1.172-.061 2.084-.987 2.084-2.096V2.602C40 1.392 38.933.432 37.654.504Zm-19.27 3.8C13.715 1.49 6.151.717 2.346.504 1.066.433 0 1.392 0 2.602v23.096c0 1.11.912 2.035 2.085 2.096 3.437.177 10.388.827 15.192 3.209.738.366 1.612-.133 1.612-.92V5.192c0-.362-.182-.693-.505-.888Z" fill="#28A745"/></symbol></defs></svg>