<svg aria-hidden="true" style="position: absolute; width: 0; height: 0; overflow: hidden;" version="1.1" xmlns="http://www.w3.org/2000/svg" xmlns:xlink="http://www.w3.org/1999/xlink">
<defs>
<symbol id="icon-right" viewBox="0 0 32 32" >
<path d="M11.086 22.086l2.829 2.829 8.914-8.914-8.914-8.914-2.828 2.828 6.086 6.086z"></path>
</symbol>
<symbol id="icon-facebook" viewBox="0 0 24 24" fill="white">
<path d="M24 12q0-2.479-0.93-4.648t-2.592-3.831-3.831-2.592-4.648-0.93-4.648 0.93-3.831 2.592-2.592 3.831-0.93 4.648q0 2.197 0.704 4.141t2.028 3.521 3.070 2.648 3.775 1.465v-8.169h-2.366v-3.606h2.366v-2.986q0-1.183 0.592-2.141t1.521-1.521 2.113-0.563h2.986v3.606h-2.366q-0.507 0-0.873 0.366t-0.366 0.817v2.423h3.606v3.606h-3.606v8.338q2.31-0.225 4.282-1.239t3.437-2.62 2.282-3.662 0.817-4.423z"></path>
</symbol>
<symbol id="icon-twitter" viewBox="0 0 32 32" fill="white">
<path d="M32 7.075c-1.175 0.525-2.444 0.875-3.769 1.031 1.356-0.813 2.394-2.1 2.887-3.631-1.269 0.75-2.675 1.3-4.169 1.594-1.2-1.275-2.906-2.069-4.794-2.069-3.625 0-6.563 2.938-6.563 6.563 0 0.512 0.056 1.012 0.169 1.494-5.456-0.275-10.294-2.888-13.531-6.862-0.563 0.969-0.887 2.1-0.887 3.3 0 2.275 1.156 4.287 2.919 5.463-1.075-0.031-2.087-0.331-2.975-0.819 0 0.025 0 0.056 0 0.081 0 3.181 2.263 5.838 5.269 6.437-0.55 0.15-1.131 0.231-1.731 0.231-0.425 0-0.831-0.044-1.237-0.119 0.838 2.606 3.263 4.506 6.131 4.563-2.25 1.762-5.075 2.813-8.156 2.813-0.531 0-1.050-0.031-1.569-0.094 2.913 1.869 6.362 2.95 10.069 2.95 12.075 0 18.681-10.006 18.681-18.681 0-0.287-0.006-0.569-0.019-0.85 1.281-0.919 2.394-2.075 3.275-3.394z"></path>
</symbol>
<symbol id="icon-youtube" viewBox="0 0 32 32" fill="white">
<path d="M31.681 9.6c0 0-0.313-2.206-1.275-3.175-1.219-1.275-2.581-1.281-3.206-1.356-4.475-0.325-11.194-0.325-11.194-0.325h-0.012c0 0-6.719 0-11.194 0.325-0.625 0.075-1.987 0.081-3.206 1.356-0.963 0.969-1.269 3.175-1.269 3.175s-0.319 2.588-0.319 5.181v2.425c0 2.587 0.319 5.181 0.319 5.181s0.313 2.206 1.269 3.175c1.219 1.275 2.819 1.231 3.531 1.369 2.563 0.244 10.881 0.319 10.881 0.319s6.725-0.012 11.2-0.331c0.625-0.075 1.988-0.081 3.206-1.356 0.962-0.969 1.275-3.175 1.275-3.175s0.319-2.587 0.319-5.181v-2.425c-0.006-2.588-0.325-5.181-0.325-5.181zM12.694 20.15v-8.994l8.644 4.513-8.644 4.481z"></path>
</symbol>
<symbol id="icon-linkedin" viewBox="0 0 32 32" fill="white">
<path d="M12 12h5.535v2.837h0.079c0.77-1.381 2.655-2.837 5.464-2.837 5.842 0 6.922 3.637 6.922 8.367v9.633h-5.769v-8.54c0-2.037-0.042-4.657-3.001-4.657-3.005 0-3.463 2.218-3.463 4.509v8.688h-5.767v-18z"></path>
<path d="M2 12h6v18h-6v-18z"></path>
<path d="M8 7c0 1.657-1.343 3-3 3s-3-1.343-3-3c0-1.657 1.343-3 3-3s3 1.343 3 3z"></path>
</symbol>
<symbol id="icon-logo" width="40" height="32" viewBox="0 0 40 32" fill="none" xmlns="http://www.w3.org/2000/svg">
<path d="M37.6542 0.503712C33.8486 0.71631 26.2847 1.49014 21.6153 4.30381C21.2931 4.49795 21.1104 4.84317 21.1104 5.2041V30.078C21.1104 30.8676 21.9875 31.3666 22.7271 31.0002C27.5312 28.6199 34.4792 27.9705 37.9146 27.7928C39.0875 27.7319 39.9993 26.8064 39.9993 25.6969V2.60235C40 1.3917 38.9333 0.432619 37.6542 0.503712ZM18.384 4.30381C13.7153 1.49014 6.15139 0.716994 2.34583 0.503712C1.06667 0.432619 0 1.3917 0 2.60235V25.6976C0 26.8077 0.911806 27.7333 2.08472 27.7935C5.52153 27.9712 12.4729 28.6213 17.2771 31.0029C18.0146 31.3687 18.8889 30.8703 18.8889 30.0828V5.1918C18.8889 4.83018 18.7069 4.49863 18.384 4.30381Z" fill="#28A745"/>
</symbol>
</defs>
</svg>
